<svg width="33" height="28" viewBox="0 0 33 28" fill="none" xmlns="http://www.w3.org/2000/svg">
  <path d="M29.424 2.582A9.028 9.028 0 0 0 23.084 0a9.134 9.134 0 0 0-5.361 1.755l-.203.15c-.294.22-.575.458-.843.71l-.843.836 2.53 2.507.733-.727a6.51 6.51 0 0 1 .843-.686l.244-.15a5.468 5.468 0 0 1 6.863.836 5.388 5.388 0 0 1 1.477 3.782 5.39 5.39 0 0 1-1.587 3.738L14.671 24.94a1.798 1.798 0 0 0-.076 2.507 1.736 1.736 0 0 0 1.264.552 1.7 1.7 0 0 0 1.248-.51l12.25-12.124a9.15 9.15 0 0 0 2.689-6.51 8.707 8.707 0 0 0-.674-3.398 8.77 8.77 0 0 0-1.948-2.876Z" fill="url(#a)"/>
  <path d="M23.64 11.105 15 2.549A9.07 9.07 0 0 0 8.712.308a9.058 9.058 0 0 0-6.117 2.66 8.901 8.901 0 0 0-2.594 6.1 8.895 8.895 0 0 0 2.352 6.198l8.548 8.506a1.746 1.746 0 0 0 1.248.51c.351.001.695-.1.988-.293.293-.193.521-.468.656-.79a1.74 1.74 0 0 0-.388-1.917l-5.252-5.214 5.26-5.206a1.771 1.771 0 0 0 .524-1.253 1.76 1.76 0 0 0-.524-1.253 1.79 1.79 0 0 0-1.264-.52 1.802 1.802 0 0 0-1.265.52l-5.243 5.23-.734-.726a5.576 5.576 0 0 1-1.686-3.702A5.305 5.305 0 0 1 3.6 6.885 5.346 5.346 0 0 1 4.908 4.98a5.49 5.49 0 0 1 3.816-1.464 5.487 5.487 0 0 1 3.772 1.573l8.733 8.598a1.78 1.78 0 0 0 2.936-1.346c0-.232-.046-.463-.136-.678a1.703 1.703 0 0 0-.389-.558Z" fill="url(#b)"/>
  <defs>
    <linearGradient id="a" x1="13.111" y1="6.183" x2="25.753" y2="18.938" gradientUnits="userSpaceOnUse">
      <stop stop-color="#007994"/>
      <stop offset="1" stop-color="#2BB5CA"/>
    </linearGradient>
    <linearGradient id="b" x1="2.312" y1="2.615" x2="18.387" y2="18.835" gradientUnits="userSpaceOnUse">
      <stop stop-color="#17CCAA"/>
      <stop offset=".39" stop-color="#11B1A9"/>
      <stop offset=".74" stop-color="#0DA0A8"/>
      <stop offset="1" stop-color="#0C9AA8"/>
    </linearGradient>
  </defs>
</svg>