<svg width="500" height="48" viewBox="0 0 500 48" fill="none" xmlns="http://www.w3.org/2000/svg">
  <path d="M51.278 33.611h-4.25l7.12-19.566h4.587l7.1 19.566H61.8l-1.205-3.361h-8.112l-1.204 3.361Zm5.299-14.61h-.106l-2.736 7.64h5.53L56.577 19ZM68.032 31.778a7.486 7.486 0 0 1-1.578-2.488 7.438 7.438 0 0 1-.493-2.898 7.438 7.438 0 0 1 .493-2.898 7.486 7.486 0 0 1 1.579-2.488 6.91 6.91 0 0 1 2.385-1.642 6.963 6.963 0 0 1 2.856-.526 6.8 6.8 0 0 1 2.628.381c.842.299 1.615.76 2.276 1.357a6.36 6.36 0 0 1 2.042 3.887h-4.017a2.682 2.682 0 0 0-1.031-1.547 3.072 3.072 0 0 0-1.927-.602 2.912 2.912 0 0 0-1.363.26c-.427.194-.799.488-1.084.858a4.584 4.584 0 0 0-.887 2.96 4.584 4.584 0 0 0 .887 2.96c.285.37.657.664 1.084.859.426.194.894.283 1.363.258a3.072 3.072 0 0 0 1.927-.601 2.72 2.72 0 0 0 1.03-1.547h4.057a6.36 6.36 0 0 1-2.043 3.886 6.757 6.757 0 0 1-2.276 1.358 6.8 6.8 0 0 1-2.628.38 6.963 6.963 0 0 1-2.876-.517 6.91 6.91 0 0 1-2.404-1.65ZM82.89 31.778a7.497 7.497 0 0 1-2.072-5.386 7.497 7.497 0 0 1 2.071-5.386 6.92 6.92 0 0 1 2.386-1.641 6.973 6.973 0 0 1 2.856-.526c.9-.054 1.803.072 2.654.37.85.3 1.632.764 2.298 1.367a6.408 6.408 0 0 1 2.043 3.887H91.02A2.672 2.672 0 0 0 90 22.916a3.102 3.102 0 0 0-1.927-.602 2.971 2.971 0 0 0-1.36.266 2.944 2.944 0 0 0-1.087.852 4.64 4.64 0 0 0-.887 2.96 4.64 4.64 0 0 0 .887 2.96c.289.366.661.658 1.087.852.426.194.892.285 1.36.265A3.102 3.102 0 0 0 90 29.869a2.7 2.7 0 0 0 1.021-1.547h4.066a6.407 6.407 0 0 1-2.004 3.886 6.755 6.755 0 0 1-2.28 1.36 6.8 6.8 0 0 1-2.634.378 6.974 6.974 0 0 1-2.876-.518 6.92 6.92 0 0 1-2.404-1.65ZM110.127 27.519H99.528c.071.87.47 1.681 1.118 2.272a3.974 3.974 0 0 0 4.124.392 2.341 2.341 0 0 0 1.127-1.175h3.979a6.533 6.533 0 0 1-2.514 3.572 7.265 7.265 0 0 1-4.384 1.365 7.033 7.033 0 0 1-2.87-.505 6.982 6.982 0 0 1-2.41-1.624 7.542 7.542 0 0 1-1.582-2.522 7.493 7.493 0 0 1-.48-2.93 7.487 7.487 0 0 1 2.062-5.377 6.93 6.93 0 0 1 2.397-1.634 6.983 6.983 0 0 1 2.863-.515 6.885 6.885 0 0 1 2.84.512 6.832 6.832 0 0 1 2.373 1.627 7.598 7.598 0 0 1 2.013 5.386l-.057 1.156Zm-7.197-5.539a3.255 3.255 0 0 0-2.197.735 3.336 3.336 0 0 0-1.118 1.996h6.619a3.291 3.291 0 0 0-1.079-1.986 3.293 3.293 0 0 0-2.225-.745ZM117.333 33.945c-3.969 0-6.073-1.674-6.311-5.023h3.999a1.9 1.9 0 0 0 .655 1.337 2.53 2.53 0 0 0 1.763.545 3.261 3.261 0 0 0 1.657-.363 1.091 1.091 0 0 0 .588-.955c0-.44-.279-.758-.838-.955a10.74 10.74 0 0 0-2.014-.516 21.799 21.799 0 0 1-2.38-.525 4.064 4.064 0 0 1-2.023-1.29 3.802 3.802 0 0 1-.838-2.568 4.29 4.29 0 0 1 .416-1.876 4.334 4.334 0 0 1 1.193-1.514 6.298 6.298 0 0 1 4.23-1.375 5.922 5.922 0 0 1 4.422 1.49 5.214 5.214 0 0 1 1.561 3.39h-3.854a1.758 1.758 0 0 0-.626-1.242 2.279 2.279 0 0 0-1.571-.496 2.407 2.407 0 0 0-1.474.4 1.225 1.225 0 0 0-.52.956c0 .439.269.764.828.955.655.223 1.329.386 2.014.487.8.118 1.592.287 2.37.506.866.23 1.624.754 2.143 1.479.519.725.766 1.607.699 2.493a4.068 4.068 0 0 1-.423 1.857 4.11 4.11 0 0 1-1.224 1.466 7.128 7.128 0 0 1-4.442 1.337ZM130.263 33.945c-3.97 0-6.073-1.674-6.311-5.023h3.999a1.9 1.9 0 0 0 .655 1.337 2.558 2.558 0 0 0 1.763.545 3.264 3.264 0 0 0 1.696-.363 1.08 1.08 0 0 0 .587-.955c0-.44-.279-.764-.828-.955a11.05 11.05 0 0 0-2.024-.516 21.73 21.73 0 0 1-2.379-.525 4.098 4.098 0 0 1-2.024-1.29 3.802 3.802 0 0 1-.838-2.568 4.315 4.315 0 0 1 1.619-3.39 6.26 6.26 0 0 1 4.22-1.375 5.89 5.89 0 0 1 4.422 1.49 5.214 5.214 0 0 1 1.561 3.39h-3.854a1.734 1.734 0 0 0-.617-1.242 2.316 2.316 0 0 0-1.58-.496 2.407 2.407 0 0 0-1.474.4 1.221 1.221 0 0 0-.52.955c0 .44.279.765.829.956.654.223 1.328.386 2.013.487.8.118 1.592.287 2.37.506a3.954 3.954 0 0 1 2.014 1.327c.591.753.888 1.692.838 2.645a4.104 4.104 0 0 1-1.657 3.323 7.126 7.126 0 0 1-4.48 1.337ZM150.129 33.611h-5.983V14.045h5.983c3.449 0 6.141.881 8.074 2.645a9.164 9.164 0 0 1 2.89 7.133 9.154 9.154 0 0 1-.658 3.884 9.23 9.23 0 0 1-2.232 3.259c-1.933 1.763-4.625 2.645-8.074 2.645Zm6.542-3.991a7.439 7.439 0 0 0 1.788-2.65c.396-1 .568-2.074.505-3.147a7.37 7.37 0 0 0-.506-3.143 7.432 7.432 0 0 0-1.787-2.644c-1.535-1.375-3.764-2.062-6.686-2.062h-3.854v15.708h3.854c2.948 0 5.177-.687 6.686-2.063ZM170.43 33.945a6.8 6.8 0 0 1-2.852-.514 6.75 6.75 0 0 1-2.37-1.653 7.386 7.386 0 0 1-1.985-5.166 7.42 7.42 0 0 1 1.985-5.195 7.356 7.356 0 0 1 2.396-1.604 7.408 7.408 0 0 1 8.067 1.604 7.42 7.42 0 0 1 1.985 5.195 7.386 7.386 0 0 1-1.985 5.166 6.744 6.744 0 0 1-2.379 1.657 6.796 6.796 0 0 1-2.862.51Zm-5.203-7.333a5.705 5.705 0 0 0 1.445 3.982 5.269 5.269 0 0 0 7.535 0 5.705 5.705 0 0 0 1.445-3.982 5.703 5.703 0 0 0-1.445-4.011 5.297 5.297 0 0 0-7.554 0 5.766 5.766 0 0 0-1.426 4.01ZM181.616 31.778a7.51 7.51 0 0 1-1.927-5.166 7.598 7.598 0 0 1 1.927-5.186 7.077 7.077 0 0 1 9.5-.65 6.67 6.67 0 0 1 2.167 3.82h-2.004A4.772 4.772 0 0 0 189.642 22a4.996 4.996 0 0 0-6.581.62 5.864 5.864 0 0 0-1.339 3.992 5.828 5.828 0 0 0 1.368 3.992 4.993 4.993 0 0 0 6.58.62 4.767 4.767 0 0 0 1.638-2.597h1.975a6.67 6.67 0 0 1-2.167 3.82 7.065 7.065 0 0 1-4.874 1.524 7.048 7.048 0 0 1-4.626-2.154v-.038ZM201.849 31.768v1.757c-.493.112-.998.16-1.503.143-2.448 0-3.671-1.273-3.671-3.82v-8.594h-2.698v-1.67h2.698v-4.002h1.927v4.001h3.353v1.652h-3.257v8.461c0 1.47.646 2.206 1.927 2.206l1.224-.134ZM210.221 33.945a6.793 6.793 0 0 1-2.846-.516 6.735 6.735 0 0 1-2.366-1.651 7.352 7.352 0 0 1-1.995-5.166 7.394 7.394 0 0 1 1.995-5.195 7.337 7.337 0 0 1 2.394-1.604 7.395 7.395 0 0 1 8.059 1.604 7.42 7.42 0 0 1 1.985 5.194 7.386 7.386 0 0 1-2.004 5.167 6.743 6.743 0 0 1-2.371 1.653 6.792 6.792 0 0 1-2.851.514Zm-5.203-7.334a5.705 5.705 0 0 0 1.445 3.982 5.27 5.27 0 0 0 7.535 0 5.705 5.705 0 0 0 1.445-3.982 5.703 5.703 0 0 0-1.445-4.01 5.258 5.258 0 0 0-1.724-1.172 5.293 5.293 0 0 0-4.097 0 5.243 5.243 0 0 0-1.723 1.172 5.772 5.772 0 0 0-1.436 4.01ZM227.429 19.46v1.909h-.694a4.242 4.242 0 0 0-3.054 1.117 4.271 4.271 0 0 0-1.166 3.237v7.964h-1.975V19.584h1.927v2.178a4.47 4.47 0 0 1 1.638-1.614 5.431 5.431 0 0 1 2.89-.707l.434.02Z" fill="#031C3A"/>
  <path d="M33.627 10.95A10.318 10.318 0 0 0 26.382 8a10.438 10.438 0 0 0-6.128 2.005l-.231.172c-.336.253-.658.524-.963.812l-.964.955 2.89 2.865.839-.831c.298-.287.62-.55.963-.783l.28-.172a6.25 6.25 0 0 1 7.842.955A6.158 6.158 0 0 1 32.6 18.3a6.161 6.161 0 0 1-1.814 4.272L16.767 36.505a2.052 2.052 0 0 0-.087 2.865 1.983 1.983 0 0 0 1.445.63 1.942 1.942 0 0 0 1.426-.583l14-13.856a10.457 10.457 0 0 0 3.073-7.439 9.95 9.95 0 0 0-.77-3.885 10.024 10.024 0 0 0-2.227-3.286Z" fill="url(#a)"/>
  <path d="m27.018 20.691-9.876-9.778a10.365 10.365 0 0 0-7.184-2.561 10.353 10.353 0 0 0-6.991 3.04 10.173 10.173 0 0 0-2.965 6.972c-.051 2.615.91 5.15 2.688 7.083l9.77 9.72a1.996 1.996 0 0 0 1.426.583c.401.002.794-.114 1.129-.334a2.01 2.01 0 0 0 .75-.902 1.99 1.99 0 0 0-.444-2.192L9.32 26.363l6.012-5.949a2.025 2.025 0 0 0 .599-1.432 2.01 2.01 0 0 0-.6-1.433 2.044 2.044 0 0 0-1.444-.593 2.06 2.06 0 0 0-1.446.593l-5.992 5.978-.839-.83a6.373 6.373 0 0 1-1.926-4.23c-.049-.888.099-1.774.432-2.599a6.108 6.108 0 0 1 1.494-2.176 6.275 6.275 0 0 1 4.361-1.674 6.271 6.271 0 0 1 4.31 1.798l9.982 9.826a2.035 2.035 0 0 0 3.355-1.537c0-.267-.053-.53-.156-.776a1.945 1.945 0 0 0-.443-.638Z" fill="url(#b)"/>
  <path d="M272.297 20.944h3.132c.696 0 1.212-.162 1.548-.486.348-.324.522-.774.522-1.35 0-.576-.174-1.032-.522-1.368-.348-.336-.864-.504-1.548-.504h-3.132v3.708Zm0 2.016V28h-2.178V15.22h5.292c1.452 0 2.526.36 3.222 1.08.708.708 1.062 1.644 1.062 2.808 0 1.152-.36 2.082-1.08 2.79-.72.708-1.788 1.062-3.204 1.062h-3.114Zm13.962 1.044c-2.088 0-3.312.096-3.672.288-.372.192-.558.54-.558 1.044 0 .804.534 1.206 1.602 1.206 1.752 0 2.628-.684 2.628-2.052v-.486Zm-3.006 4.212c-1.104 0-1.926-.27-2.466-.81-.54-.54-.81-1.254-.81-2.142 0-1.14.504-1.938 1.512-2.394.24-.108.468-.186.684-.234.228-.06.684-.114 1.368-.162.684-.06 1.59-.09 2.718-.09v-.468c0-1.14-.666-1.71-1.998-1.71-1.164 0-1.824.462-1.98 1.386h-2.088c.096-.912.474-1.662 1.134-2.25.672-.6 1.668-.9 2.988-.9 1.332 0 2.334.306 3.006.918.684.612 1.026 1.47 1.026 2.574V28h-1.98v-.99c-.672.804-1.71 1.206-3.114 1.206Zm11.455-2.124v1.854c-.264.072-.636.108-1.116.108-1.824 0-2.736-.918-2.736-2.754v-4.932h-1.422v-1.71h1.422v-2.43h2.142v2.43h1.746v1.71h-1.746v4.716c0 .732.348 1.098 1.044 1.098l.666-.09Zm.632-5.526v-1.908h3.51V28h-2.142v-7.434h-1.368Zm2.448-3.474c-.396 0-.72-.12-.972-.36a1.293 1.293 0 0 1-.378-.954c0-.396.126-.72.378-.972s.576-.378.972-.378c.384 0 .702.126.954.378s.378.576.378.972c0 .384-.126.702-.378.954-.252.24-.57.36-.954.36Zm12.08 6.858h-7.11c.084.744.354 1.338.81 1.782.456.432 1.056.648 1.8.648.492 0 .936-.12 1.332-.36s.678-.564.846-.972h2.16a4.386 4.386 0 0 1-1.62 2.304c-.78.576-1.704.864-2.772.864-1.392 0-2.52-.462-3.384-1.386-.852-.924-1.278-2.094-1.278-3.51 0-1.38.432-2.538 1.296-3.474.864-.936 1.98-1.404 3.348-1.404 1.368 0 2.472.462 3.312 1.386.852.912 1.278 2.064 1.278 3.456l-.018.666Zm-4.572-3.762c-.672 0-1.23.198-1.674.594-.444.396-.72.924-.828 1.584h4.968c-.096-.66-.36-1.188-.792-1.584-.432-.396-.99-.594-1.674-.594Zm8.35-1.53V19.9c.216-.408.57-.75 1.062-1.026.504-.288 1.11-.432 1.818-.432 1.104 0 1.956.336 2.556 1.008.612.672.918 1.566.918 2.682V28h-2.142v-5.598c0-.66-.156-1.176-.468-1.548-.3-.384-.762-.576-1.386-.576-.684 0-1.224.204-1.62.612-.384.408-.576.972-.576 1.692V28h-2.142v-9.342h1.98Zm12.879 7.434v1.854c-.264.072-.636.108-1.116.108-1.824 0-2.736-.918-2.736-2.754v-4.932h-1.422v-1.71h1.422v-2.43h2.142v2.43h1.746v1.71h-1.746v4.716c0 .732.348 1.098 1.044 1.098l.666-.09Zm8.277-10.872 4.032 5.292 4.05-5.292h1.998V28h-2.142v-9.342l-3.87 5.004h-.072l-3.852-5.004V28h-2.142V15.22h1.998Zm21.31 8.73h-7.11c.084.744.354 1.338.81 1.782.456.432 1.056.648 1.8.648.492 0 .936-.12 1.332-.36s.678-.564.846-.972h2.16a4.386 4.386 0 0 1-1.62 2.304c-.78.576-1.704.864-2.772.864-1.392 0-2.52-.462-3.384-1.386-.852-.924-1.278-2.094-1.278-3.51 0-1.38.432-2.538 1.296-3.474.864-.936 1.98-1.404 3.348-1.404 1.368 0 2.472.462 3.312 1.386.852.912 1.278 2.064 1.278 3.456l-.018.666Zm-4.572-3.762c-.672 0-1.23.198-1.674.594-.444.396-.72.924-.828 1.584h4.968c-.096-.66-.36-1.188-.792-1.584-.432-.396-.99-.594-1.674-.594Zm13.066-.306V14.5h2.142V28h-1.98v-1.332c-.636 1.032-1.686 1.548-3.15 1.548-1.332 0-2.388-.462-3.168-1.386-.768-.936-1.152-2.1-1.152-3.492s.384-2.556 1.152-3.492c.78-.936 1.836-1.404 3.168-1.404 1.356 0 2.352.48 2.988 1.44Zm.09 3.456c0-.876-.24-1.596-.72-2.16-.468-.564-1.104-.846-1.908-.846-.792 0-1.428.282-1.908.846-.48.564-.72 1.284-.72 2.16 0 .852.24 1.566.72 2.142.48.564 1.116.846 1.908.846.804 0 1.44-.282 1.908-.846.48-.564.72-1.278.72-2.142Zm3.541-2.772v-1.908h3.51V28h-2.142v-7.434h-1.368Zm2.448-3.474c-.396 0-.72-.12-.972-.36a1.293 1.293 0 0 1-.378-.954c0-.396.126-.72.378-.972s.576-.378.972-.378c.384 0 .702.126.954.378s.378.576.378.972c0 .384-.126.702-.378.954-.252.24-.57.36-.954.36Zm2.864 6.246c0-1.38.438-2.538 1.314-3.474.876-.948 1.992-1.422 3.348-1.422 1.284 0 2.304.366 3.06 1.098.768.72 1.224 1.554 1.368 2.502h-2.196a2.203 2.203 0 0 0-.81-1.242c-.396-.312-.876-.468-1.44-.468-.756 0-1.362.282-1.818.846-.456.552-.684 1.272-.684 2.16 0 .888.228 1.608.684 2.16.456.552 1.062.828 1.818.828.564 0 1.044-.156 1.44-.468.408-.312.678-.726.81-1.242h2.196c-.144.948-.6 1.788-1.368 2.52-.756.72-1.776 1.08-3.06 1.08-1.356 0-2.472-.468-3.348-1.404-.876-.948-1.314-2.106-1.314-3.474Zm16.388.666c-2.088 0-3.312.096-3.672.288-.372.192-.558.54-.558 1.044 0 .804.534 1.206 1.602 1.206 1.752 0 2.628-.684 2.628-2.052v-.486Zm-3.006 4.212c-1.104 0-1.926-.27-2.466-.81-.54-.54-.81-1.254-.81-2.142 0-1.14.504-1.938 1.512-2.394.24-.108.468-.186.684-.234.228-.06.684-.114 1.368-.162.684-.06 1.59-.09 2.718-.09v-.468c0-1.14-.666-1.71-1.998-1.71-1.164 0-1.824.462-1.98 1.386h-2.088c.096-.912.474-1.662 1.134-2.25.672-.6 1.668-.9 2.988-.9 1.332 0 2.334.306 3.006.918.684.612 1.026 1.47 1.026 2.574V28h-1.98v-.99c-.672.804-1.71 1.206-3.114 1.206Zm11.455-2.124v1.854c-.264.072-.636.108-1.116.108-1.824 0-2.736-.918-2.736-2.754v-4.932h-1.422v-1.71h1.422v-2.43h2.142v2.43h1.746v1.71h-1.746v4.716c0 .732.348 1.098 1.044 1.098l.666-.09Zm.631-5.526v-1.908h3.51V28h-2.142v-7.434h-1.368Zm2.448-3.474c-.396 0-.72-.12-.972-.36a1.293 1.293 0 0 1-.378-.954c0-.396.126-.72.378-.972s.576-.378.972-.378c.384 0 .702.126.954.378s.378.576.378.972c0 .384-.126.702-.378.954-.252.24-.57.36-.954.36Zm7.706 11.124c-1.44 0-2.61-.474-3.51-1.422-.888-.948-1.332-2.1-1.332-3.456 0-1.356.444-2.508 1.332-3.456.9-.96 2.07-1.44 3.51-1.44 1.452 0 2.622.48 3.51 1.44.9.948 1.35 2.1 1.35 3.456 0 1.356-.45 2.508-1.35 3.456-.888.948-2.058 1.422-3.51 1.422Zm-2.7-4.878c0 .888.252 1.608.756 2.16.516.552 1.164.828 1.944.828.792 0 1.44-.276 1.944-.828.516-.552.774-1.272.774-2.16 0-.9-.258-1.626-.774-2.178-.504-.552-1.152-.828-1.944-.828-.78 0-1.428.276-1.944.828-.504.552-.756 1.278-.756 2.178Zm11.345-4.68V19.9c.216-.408.57-.75 1.062-1.026.504-.288 1.11-.432 1.818-.432 1.104 0 1.956.336 2.556 1.008.612.672.918 1.566.918 2.682V28h-2.142v-5.598c0-.66-.156-1.176-.468-1.548-.3-.384-.762-.576-1.386-.576-.684 0-1.224.204-1.62.612-.384.408-.576.972-.576 1.692V28h-2.142v-9.342h1.98ZM441.473 28h-2.556l-2.592-5.04h-2.934V28h-2.178V15.22h5.616c1.368 0 2.412.354 3.132 1.062.72.708 1.08 1.644 1.08 2.808 0 .876-.21 1.632-.63 2.268-.42.624-1.044 1.068-1.872 1.332l2.934 5.31Zm-3.132-7.56c.336-.336.504-.786.504-1.35 0-.564-.168-1.014-.504-1.35-.336-.336-.834-.504-1.494-.504h-3.456v3.708h3.456c.66 0 1.158-.168 1.494-.504Zm13.191 3.51h-7.11c.084.744.354 1.338.81 1.782.456.432 1.056.648 1.8.648.492 0 .936-.12 1.332-.36s.678-.564.846-.972h2.16a4.386 4.386 0 0 1-1.62 2.304c-.78.576-1.704.864-2.772.864-1.392 0-2.52-.462-3.384-1.386-.852-.924-1.278-2.094-1.278-3.51 0-1.38.432-2.538 1.296-3.474.864-.936 1.98-1.404 3.348-1.404 1.368 0 2.472.462 3.312 1.386.852.912 1.278 2.064 1.278 3.456l-.018.666Zm-4.572-3.762c-.672 0-1.23.198-1.674.594-.444.396-.72.924-.828 1.584h4.968c-.096-.66-.36-1.188-.792-1.584-.432-.396-.99-.594-1.674-.594Zm5.758 3.15c0-1.38.438-2.538 1.314-3.474.876-.948 1.992-1.422 3.348-1.422 1.284 0 2.304.366 3.06 1.098.768.72 1.224 1.554 1.368 2.502h-2.196a2.203 2.203 0 0 0-.81-1.242c-.396-.312-.876-.468-1.44-.468-.756 0-1.362.282-1.818.846-.456.552-.684 1.272-.684 2.16 0 .888.228 1.608.684 2.16.456.552 1.062.828 1.818.828.564 0 1.044-.156 1.44-.468.408-.312.678-.726.81-1.242h2.196c-.144.948-.6 1.788-1.368 2.52-.756.72-1.776 1.08-3.06 1.08-1.356 0-2.472-.468-3.348-1.404-.876-.948-1.314-2.106-1.314-3.474Zm14.858 4.878c-1.44 0-2.61-.474-3.51-1.422-.888-.948-1.332-2.1-1.332-3.456 0-1.356.444-2.508 1.332-3.456.9-.96 2.07-1.44 3.51-1.44 1.452 0 2.622.48 3.51 1.44.9.948 1.35 2.1 1.35 3.456 0 1.356-.45 2.508-1.35 3.456-.888.948-2.058 1.422-3.51 1.422Zm-2.7-4.878c0 .888.252 1.608.756 2.16.516.552 1.164.828 1.944.828.792 0 1.44-.276 1.944-.828.516-.552.774-1.272.774-2.16 0-.9-.258-1.626-.774-2.178-.504-.552-1.152-.828-1.944-.828-.78 0-1.428.276-1.944.828-.504.552-.756 1.278-.756 2.178Zm14.404-4.752v1.998a3.438 3.438 0 0 0-.486-.036c-1.608 0-2.412.864-2.412 2.592V28h-2.142v-9.342h1.98v1.296c.528-.924 1.446-1.386 2.754-1.386l.306.018Zm7.663 1.296V14.5h2.142V28h-1.98v-1.332c-.636 1.032-1.686 1.548-3.15 1.548-1.332 0-2.388-.462-3.168-1.386-.768-.936-1.152-2.1-1.152-3.492s.384-2.556 1.152-3.492c.78-.936 1.836-1.404 3.168-1.404 1.356 0 2.352.48 2.988 1.44Zm.09 3.456c0-.876-.24-1.596-.72-2.16-.468-.564-1.104-.846-1.908-.846-.792 0-1.428.282-1.908.846-.48.564-.72 1.284-.72 2.16 0 .852.24 1.566.72 2.142.48.564 1.116.846 1.908.846.804 0 1.44-.282 1.908-.846.48-.564.72-1.278.72-2.142Zm7.682 4.878c-1.284 0-2.25-.3-2.898-.9-.648-.6-1.002-1.368-1.062-2.304h2.07c.024.432.21.78.558 1.044.348.264.834.396 1.458.396.552 0 .978-.096 1.278-.288.3-.192.45-.45.45-.774 0-.36-.186-.624-.558-.792-.36-.18-.804-.312-1.332-.396a18.537 18.537 0 0 1-1.584-.324 2.784 2.784 0 0 1-1.35-.828c-.36-.408-.54-.966-.54-1.674 0-.816.336-1.506 1.008-2.07.684-.576 1.584-.864 2.7-.864.636 0 1.194.102 1.674.306.492.192.87.45 1.134.774.276.324.48.654.612.99.144.336.228.678.252 1.026h-2.052a1.448 1.448 0 0 0-.486-.954c-.276-.264-.672-.396-1.188-.396-.516 0-.912.102-1.188.306a.93.93 0 0 0-.414.81c0 .324.18.57.54.738.372.168.822.294 1.35.378a12.54 12.54 0 0 1 1.584.36 2.63 2.63 0 0 1 1.332.846c.372.42.558.978.558 1.674 0 .84-.342 1.536-1.026 2.088-.672.552-1.632.828-2.88.828Z" fill="#031C3A"/>
  <path fill="#D8D8D8" d="M247.429 0h1v48h-1z"/>
  <defs>
    <linearGradient id="a" x1="14.984" y1="15.066" x2="29.431" y2="29.643" gradientUnits="userSpaceOnUse">
      <stop stop-color="#007994"/>
      <stop offset="1" stop-color="#2BB5CA"/>
    </linearGradient>
    <linearGradient id="b" x1="2.642" y1="10.989" x2="21.014" y2="29.526" gradientUnits="userSpaceOnUse">
      <stop stop-color="#17CCAA"/>
      <stop offset=".39" stop-color="#11B1A9"/>
      <stop offset=".74" stop-color="#0DA0A8"/>
      <stop offset="1" stop-color="#0C9AA8"/>
    </linearGradient>
  </defs>
</svg>