<svg width="228" height="32" viewBox="0 0 228 32" fill="none" xmlns="http://www.w3.org/2000/svg">
<path d="M51.2772 25.6109H47.0283L54.1483 6.04443H58.7345L65.8352 25.6109H61.7983L60.5939 22.2495H52.4815L51.2772 25.6109ZM56.5763 11.0005H56.4703L53.7341 18.6399H59.2644L56.5763 11.0005Z" fill="#031C3A"/>
<path d="M68.033 23.7777C67.3462 23.0599 66.8096 22.2144 66.4541 21.2901C66.0986 20.3657 65.9312 19.3807 65.9615 18.392C65.9312 17.4032 66.0986 16.4182 66.4541 15.4939C66.8096 14.5695 67.3462 13.724 68.033 13.0062C68.7017 12.2973 69.5148 11.7375 70.4184 11.3638C71.3221 10.9901 72.2955 10.811 73.2742 10.8385C74.1671 10.7915 75.0604 10.921 75.9023 11.2194C76.7443 11.5177 77.5179 11.979 78.1783 12.5765C79.3008 13.5923 80.0244 14.9691 80.2208 16.463H76.2032C76.0559 15.8423 75.6904 15.2939 75.1723 14.916C74.6174 14.5046 73.9379 14.2925 73.2453 14.3144C72.7765 14.2897 72.3087 14.3785 71.8823 14.5731C71.4559 14.7678 71.0838 15.0625 70.7981 15.4317C70.1683 16.2882 69.8552 17.3336 69.9117 18.392C69.8552 19.4503 70.1683 20.4957 70.7981 21.3522C71.0838 21.7214 71.4559 22.0161 71.8823 22.2108C72.3087 22.4054 72.7765 22.4942 73.2453 22.4695C73.9379 22.4914 74.6174 22.2793 75.1723 21.8679C75.688 21.4877 76.0528 20.9403 76.2032 20.3209H80.2594C80.063 21.8148 79.3394 23.1917 78.2168 24.2075C77.5564 24.8049 76.7828 25.2662 75.9409 25.5646C75.099 25.8629 74.2056 25.9924 73.3128 25.9454C72.3276 25.9784 71.3468 25.802 70.4361 25.4281C69.5254 25.0542 68.706 24.4915 68.033 23.7777Z" fill="#031C3A"/>
<path d="M82.889 23.7778C81.5055 22.3257 80.7605 20.3885 80.8175 18.3921C80.7605 16.3956 81.5055 14.4585 82.889 13.0063C83.5581 12.2979 84.3713 11.7384 85.2748 11.3648C86.1783 10.9911 87.1516 10.8117 88.1302 10.8386C89.031 10.7852 89.9334 10.9115 90.7841 11.21C91.6347 11.5085 92.4163 11.9732 93.0824 12.5766C94.2017 13.5949 94.9246 14.9704 95.125 16.4631H91.0206C90.8766 15.8435 90.5145 15.295 89.9993 14.9161C89.4434 14.5068 88.7647 14.2949 88.0724 14.3145C87.6043 14.2946 87.1381 14.3856 86.7125 14.5799C86.2869 14.7742 85.9142 15.0662 85.6252 15.4318C84.9996 16.2904 84.687 17.3342 84.7388 18.3921C84.687 19.4499 84.9996 20.4937 85.6252 21.3523C85.9142 21.7179 86.2869 22.0099 86.7125 22.2042C87.1381 22.3985 87.6043 22.4895 88.0724 22.4696C88.7647 22.4892 89.4434 22.2773 89.9993 21.868C90.5127 21.4874 90.8743 20.9396 91.0206 20.321H95.0865C94.8964 21.8086 94.1874 23.1834 93.0824 24.2076C92.4209 24.8061 91.6457 25.2681 90.802 25.5665C89.9584 25.8649 89.0632 25.9938 88.1688 25.9455C87.1837 25.9778 86.203 25.8012 85.2925 25.4273C84.3819 25.0535 83.5624 24.4911 82.889 23.7778Z" fill="#031C3A"/>
<path d="M110.127 19.5185H99.5285C99.5991 20.3885 99.9982 21.2001 100.646 21.7912C101.23 22.2284 101.924 22.4965 102.652 22.5657C103.38 22.6348 104.113 22.5022 104.77 22.1827C105.275 21.9375 105.675 21.5208 105.897 21.0082H109.876C109.475 22.4487 108.587 23.7093 107.362 24.5796C106.089 25.496 104.55 25.9755 102.978 25.9451C101.996 25.9786 101.018 25.8063 100.108 25.4393C99.1985 25.0723 98.3771 24.519 97.6979 23.8156C97.0073 23.0872 96.4695 22.2301 96.1156 21.2942C95.7617 20.3582 95.5987 19.3619 95.6361 18.363C95.578 16.371 96.3195 14.4376 97.6979 12.9868C98.3713 12.2799 99.1885 11.7229 100.095 11.3525C101.002 10.9821 101.978 10.8068 102.958 10.8382C103.931 10.8063 104.899 10.9806 105.798 11.3495C106.697 11.7184 107.506 12.2733 108.171 12.9772C109.523 14.4445 110.246 16.3765 110.184 18.363L110.127 19.5185ZM102.93 13.9799C102.131 13.9478 101.348 14.2097 100.733 14.7152C100.136 15.2298 99.7399 15.9363 99.6152 16.711H106.234C106.121 15.9439 105.739 15.2408 105.155 14.7247C104.532 14.2123 103.739 13.9469 102.93 13.9799Z" fill="#031C3A"/>
<path d="M117.333 25.9455C113.364 25.9455 111.26 24.2712 111.022 20.9226H115.021C115.034 21.1776 115.099 21.4272 115.212 21.6568C115.324 21.8865 115.482 22.0914 115.676 22.2595C116.173 22.656 116.803 22.8506 117.439 22.8038C118.014 22.8311 118.586 22.7058 119.096 22.441C119.272 22.3494 119.42 22.2122 119.523 22.044C119.627 21.8759 119.682 21.683 119.684 21.486C119.684 21.0468 119.405 20.7285 118.846 20.5311C118.193 20.2946 117.519 20.1218 116.832 20.0154C116.03 19.885 115.235 19.7097 114.452 19.4902C113.662 19.2732 112.957 18.8237 112.429 18.2011C111.844 17.4745 111.546 16.5612 111.591 15.6323C111.586 14.984 111.728 14.3429 112.007 13.7562C112.285 13.1695 112.693 12.6522 113.2 12.2423C114.392 11.2861 115.897 10.7968 117.43 10.8673C118.23 10.8028 119.036 10.9018 119.796 11.158C120.557 11.4142 121.257 11.8223 121.852 12.3569C122.774 13.2588 123.33 14.4654 123.413 15.7469H119.559C119.545 15.5087 119.482 15.2758 119.375 15.0623C119.267 14.8489 119.117 14.6595 118.933 14.5055C118.491 14.1503 117.93 13.973 117.362 14.009C116.84 13.9791 116.322 14.12 115.888 14.41C115.733 14.5187 115.605 14.6615 115.515 14.8271C115.425 14.9928 115.374 15.1768 115.368 15.365C115.368 15.8042 115.637 16.1289 116.196 16.3199C116.851 16.5435 117.525 16.7066 118.21 16.8069C119.01 16.9252 119.802 17.0943 120.58 17.313C121.446 17.5439 122.204 18.067 122.723 18.7921C123.242 19.5172 123.489 20.399 123.422 21.2855C123.43 21.9287 123.285 22.5647 122.999 23.1421C122.713 23.7194 122.293 24.2218 121.775 24.6086C120.488 25.5362 118.923 26.0072 117.333 25.9455Z" fill="#031C3A"/>
<path d="M130.263 25.9455C126.293 25.9455 124.19 24.2712 123.952 20.9226H127.951C127.964 21.1776 128.029 21.4272 128.142 21.6568C128.254 21.8865 128.412 22.0914 128.606 22.2595C129.104 22.6535 129.733 22.8477 130.369 22.8038C130.957 22.838 131.543 22.7126 132.065 22.441C132.241 22.3494 132.388 22.2122 132.492 22.044C132.595 21.8759 132.651 21.683 132.652 21.486C132.652 21.0468 132.373 20.7221 131.824 20.5311C131.167 20.2958 130.49 20.1231 129.8 20.0154C128.998 19.885 128.203 19.7097 127.421 19.4902C126.631 19.271 125.926 18.8219 125.397 18.2011C124.812 17.4745 124.514 16.5612 124.559 15.6323C124.554 14.983 124.697 14.3409 124.978 13.754C125.258 13.167 125.668 12.6503 126.178 12.2423C127.366 11.2851 128.868 10.7955 130.398 10.8673C131.198 10.8028 132.004 10.9018 132.765 11.158C133.525 11.4142 134.225 11.8223 134.82 12.3569C135.742 13.2588 136.298 14.4654 136.381 15.7469H132.527C132.515 15.5093 132.454 15.2766 132.348 15.0632C132.242 14.8497 132.093 14.6599 131.91 14.5055C131.464 14.1513 130.901 13.9743 130.33 14.009C129.808 13.9791 129.29 14.12 128.856 14.41C128.701 14.5187 128.574 14.6615 128.483 14.8271C128.393 14.9928 128.343 15.1768 128.336 15.365C128.336 15.8042 128.615 16.1289 129.165 16.3199C129.819 16.5435 130.493 16.7066 131.178 16.8069C131.978 16.9252 132.77 17.0943 133.548 17.313C134.343 17.5359 135.047 18.0001 135.562 18.6404C136.153 19.3937 136.45 20.3326 136.4 21.2855C136.406 21.9294 136.259 22.5657 135.971 23.143C135.684 23.7202 135.263 24.2223 134.743 24.6086C133.446 25.5445 131.866 26.0159 130.263 25.9455Z" fill="#031C3A"/>
<path d="M150.13 25.6109H144.146V6.04443H150.13C153.579 6.04443 156.27 6.92615 158.203 8.68958C159.174 9.60267 159.935 10.7126 160.434 11.9436C160.933 13.1746 161.158 14.4978 161.094 15.8229C161.159 17.1495 160.934 18.4743 160.435 19.707C159.936 20.9397 159.175 22.0512 158.203 22.9657C156.27 24.7292 153.579 25.6109 150.13 25.6109ZM156.672 21.6193C157.454 20.8747 158.064 19.9709 158.459 18.9703C158.855 17.9696 159.028 16.8959 158.965 15.8229C159.027 14.7514 158.854 13.6793 158.458 12.6803C158.062 11.6813 157.453 10.7792 156.672 10.036C155.136 8.66093 152.908 7.97338 149.985 7.97338H146.131V23.6819H149.985C152.933 23.6819 155.162 22.9944 156.672 21.6193Z" fill="#031C3A"/>
<path d="M170.43 25.9456C169.453 25.981 168.48 25.8054 167.578 25.4312C166.677 25.0569 165.868 24.4928 165.208 23.7779C163.9 22.3735 163.189 20.5229 163.223 18.6118C163.185 16.6915 163.896 14.8307 165.208 13.417C165.892 12.7304 166.706 12.1853 167.604 11.8132C168.502 11.4411 169.466 11.2495 170.439 11.2495C171.413 11.2495 172.377 11.4411 173.275 11.8132C174.173 12.1853 174.987 12.7304 175.671 13.417C176.983 14.8307 177.694 16.6915 177.656 18.6118C177.69 20.5229 176.979 22.3735 175.671 23.7779C175.009 24.4953 174.197 25.0608 173.292 25.4352C172.387 25.8096 171.41 25.9838 170.43 25.9456ZM165.227 18.6118C165.179 20.0733 165.696 21.4979 166.672 22.5938C167.16 23.0958 167.746 23.495 168.393 23.7678C169.04 24.0405 169.736 24.181 170.439 24.181C171.143 24.181 171.839 24.0405 172.486 23.7678C173.133 23.495 173.719 23.0958 174.207 22.5938C175.183 21.4979 175.7 20.0733 175.652 18.6118C175.708 17.1405 175.19 15.7043 174.207 14.6011C173.716 14.0998 173.129 13.7012 172.48 13.429C171.832 13.1568 171.134 13.0166 170.43 13.0166C169.725 13.0166 169.028 13.1568 168.379 13.429C167.73 13.7012 167.143 14.0998 166.653 14.6011C165.682 15.7107 165.173 17.1441 165.227 18.6118Z" fill="#031C3A"/>
<path d="M181.616 23.7779C180.34 22.3576 179.652 20.5128 179.689 18.6117C179.656 16.7055 180.343 14.856 181.616 13.4265C182.829 12.1574 184.478 11.3863 186.238 11.266C187.998 11.1458 189.738 11.6851 191.116 12.7771C192.251 13.7727 193.014 15.1183 193.283 16.5968H191.279C191.036 15.5762 190.46 14.6634 189.642 13.9994C188.659 13.2835 187.446 12.9511 186.232 13.0656C185.018 13.1801 183.889 13.7334 183.061 14.6201C182.135 15.7424 181.658 17.1633 181.722 18.6117C181.663 20.0643 182.15 21.4869 183.09 22.6033C183.918 23.49 185.047 24.0434 186.261 24.1579C187.474 24.2724 188.688 23.9399 189.67 23.224C190.489 22.56 191.065 21.6472 191.308 20.6266H193.283C193.014 22.1051 192.251 23.4507 191.116 24.4463C189.742 25.5428 188.002 26.0868 186.242 25.97C184.481 25.8532 182.83 25.0843 181.616 23.8161V23.7779Z" fill="#031C3A"/>
<path d="M201.848 23.768V25.5251C201.355 25.637 200.85 25.6852 200.345 25.6683C197.898 25.6683 196.674 24.3951 196.674 21.8486V13.2543H193.977V11.5832H196.674V7.58203H198.601V11.5832H201.954V13.2352H198.698V21.6958C198.698 23.1664 199.343 23.9017 200.624 23.9017L201.848 23.768Z" fill="#031C3A"/>
<path d="M210.221 25.9453C209.246 25.9793 208.274 25.8031 207.375 25.4288C206.475 25.0546 205.667 24.4912 205.009 23.7776C203.694 22.3763 202.979 20.5245 203.014 18.6115C202.976 16.6893 203.691 14.8273 205.009 13.4167C205.692 12.7304 206.505 12.1854 207.403 11.8135C208.3 11.4415 209.263 11.25 210.235 11.25C211.208 11.25 212.171 11.4415 213.068 11.8135C213.965 12.1854 214.779 12.7304 215.462 13.4167C216.774 14.8304 217.485 16.6912 217.447 18.6115C217.476 20.5252 216.758 22.3762 215.443 23.7776C214.783 24.4925 213.974 25.0566 213.072 25.4308C212.171 25.8051 211.198 25.9807 210.221 25.9453ZM205.018 18.6115C204.97 20.073 205.487 21.4976 206.463 22.5935C206.951 23.0955 207.537 23.4947 208.184 23.7675C208.831 24.0402 209.527 24.1807 210.231 24.1807C210.934 24.1807 211.63 24.0402 212.277 23.7675C212.924 23.4947 213.51 23.0955 213.998 22.5935C214.974 21.4976 215.491 20.073 215.443 18.6115C215.499 17.1402 214.981 15.704 213.998 14.6008C213.508 14.0997 212.922 13.7014 212.274 13.4293C211.626 13.1572 210.929 13.017 210.226 13.017C209.522 13.017 208.825 13.1572 208.177 13.4293C207.529 13.7014 206.943 14.0997 206.454 14.6008C205.48 15.7094 204.967 17.1427 205.018 18.6115Z" fill="#031C3A"/>
<path d="M227.429 11.4589V13.3688C227.21 13.3688 226.979 13.3688 226.735 13.3688C226.177 13.3448 225.619 13.4312 225.095 13.623C224.57 13.8148 224.09 14.1082 223.681 14.486C223.272 14.9167 222.957 15.4267 222.756 15.9838C222.556 16.5409 222.474 17.1331 222.515 17.7232V25.6873H220.54V11.5831H222.467V13.7603C222.862 13.09 223.426 12.5337 224.105 12.1465C224.982 11.6469 225.984 11.4021 226.995 11.4398L227.429 11.4589Z" fill="#031C3A"/>
<path d="M33.6267 2.95073C31.6997 1.05714 29.095 -0.00367696 26.3814 9.57648e-06C24.1757 0.00598149 22.0294 0.708408 20.2538 2.00535L20.0225 2.17724C19.6861 2.4295 19.3644 2.7005 19.0591 2.98893L18.0956 3.94386L20.986 6.80863L21.8242 5.97785C22.1228 5.69065 22.445 5.42873 22.7877 5.19481L23.0671 5.02292C24.2826 4.25407 25.7304 3.92883 27.1616 4.10309C28.5928 4.27736 29.9181 4.94025 30.9097 5.97785C32.0163 7.14737 32.6216 8.69693 32.5983 10.3001C32.5749 11.9032 31.9246 13.4348 30.7845 14.5722L16.766 28.5046C16.3797 28.8778 16.1548 29.3851 16.1386 29.9196C16.1225 30.454 16.3163 30.9738 16.6793 31.3693C16.8639 31.5668 17.0874 31.7246 17.3359 31.833C17.5845 31.9414 17.8529 31.9981 18.1245 31.9996C18.3898 32.0051 18.6534 31.9561 18.8988 31.8559C19.1442 31.7557 19.366 31.6063 19.5504 31.4171L33.5496 17.5611C35.5287 15.5834 36.6342 12.9077 36.6231 10.1222C36.6296 8.78947 36.3679 7.4688 35.8534 6.23744C35.339 5.00608 34.5819 3.88873 33.6267 2.95073Z" fill="url(#paint0_linear_376_590)"/>
<path d="M27.0177 12.6911L17.1422 2.9126C15.1664 1.17917 12.5952 0.262598 9.95814 0.351632C7.32103 0.440666 4.81876 1.52853 2.96659 3.39119C1.11443 5.25386 0.0533871 7.74953 0.00196031 10.3643C-0.0494665 12.979 0.912638 15.5138 2.69015 17.4466L12.4597 27.1677C12.6465 27.3538 12.8688 27.5011 13.1136 27.6011C13.3584 27.7011 13.6209 27.7518 13.8856 27.7502C14.2872 27.7522 14.6803 27.6356 15.0149 27.4154C15.3494 27.1952 15.6102 26.8813 15.7642 26.5136C15.9181 26.146 15.9582 25.7413 15.8793 25.351C15.8004 24.9607 15.6062 24.6025 15.3212 24.322L9.31881 18.3633L15.3308 12.4141C15.5206 12.226 15.6712 12.0027 15.7739 11.7569C15.8766 11.5112 15.9295 11.2477 15.9295 10.9817C15.9295 10.7157 15.8766 10.4523 15.7739 10.2065C15.6712 9.96075 15.5206 9.73744 15.3308 9.54934C15.1411 9.36123 14.9158 9.21202 14.6678 9.11022C14.4198 9.00842 14.154 8.95602 13.8856 8.95602C13.6172 8.95602 13.3515 9.00842 13.1035 9.11022C12.8555 9.21202 12.6302 9.36123 12.4404 9.54934L6.44768 15.5272L5.60946 14.6964C4.45554 13.575 3.76794 12.0655 3.68253 10.4661C3.63441 9.57924 3.78187 8.69268 4.11465 7.8681C4.44744 7.04352 4.95754 6.30072 5.60946 5.69143C6.78944 4.59467 8.35286 3.99467 9.97036 4.01783C11.5879 4.04098 13.1331 4.68549 14.2807 5.81557L24.2622 15.6418C24.6498 15.9728 25.1495 16.1461 25.6608 16.1266C26.1721 16.1071 26.6569 15.8963 27.0177 15.5367C27.2076 15.3487 27.3583 15.1254 27.4611 14.8796C27.5639 14.6339 27.6169 14.3704 27.6169 14.1043C27.6169 13.8383 27.5639 13.5748 27.4611 13.329C27.3583 13.0832 27.2076 12.8791 27.0177 12.6911Z" fill="url(#paint1_linear_376_590)"/>
<defs>
<linearGradient id="paint0_linear_376_590" x1="14.9836" y1="7.06646" x2="29.431" y2="21.6431" gradientUnits="userSpaceOnUse">
<stop stop-color="#007994"/>
<stop offset="1" stop-color="#2BB5CA"/>
</linearGradient>
<linearGradient id="paint1_linear_376_590" x1="2.64198" y1="2.98899" x2="21.014" y2="21.5254" gradientUnits="userSpaceOnUse">
<stop stop-color="#17CCAA"/>
<stop offset="0.39" stop-color="#11B1A9"/>
<stop offset="0.74" stop-color="#0DA0A8"/>
<stop offset="1" stop-color="#0C9AA8"/>
</linearGradient>
</defs>
</svg>
